# xmcd
#
# Track frame offsets:
#	150
#	33198
#	61183
#	86552
#	122726
#	139961
#	166586
#	194510
#	230279
#	251565
#	277953
#	295082
#
# Disc length: 4446 seconds
#
# Revision: 1
# Processed by: cddbd v1.5PL3 Copyright (c) Steve Scherf et al.
# Submitted via: audiograbber 1.80
#
DISCID=a0115c0c
DTITLE=Screwhouse - Once I´m On My Lean
DYEAR=1900
DGENRE=
TTITLE0=Hold It Down
TTITLE1=I´m A Thug
TTITLE2=Aggravated Robbery
TTITLE3=Purple Pill
TTITLE4=Ho
TTITLE5=Lil´ Flip
TTITLE6=None Tonight
TTITLE7=Throw´ Yo Hood Up
TTITLE8=Set It Off
TTITLE9=Midwest Swing
TTITLE10=How We Do
TTITLE11=Contagious
EXTD=
EXTT0=
EXTT1=
EXTT2=
EXTT3=
EXTT4=
EXTT5=
EXTT6=
EXTT7=
EXTT8=
EXTT9=
EXTT10=
EXTT11=
PLAYORDER=
